<?xml version="1.0"?>
<svg xmlns="http://www.w3.org/2000/svg" xmlns:xlink="http://www.w3.org/1999/xlink" xmlns:svgjs="http://svgjs.com/svgjs" version="1.1" width="512" height="512" x="0" y="0" viewBox="0 0 512 512" style="enable-background:new 0 0 512 512" xml:space="preserve" class=""><g>
<g xmlns="http://www.w3.org/2000/svg">
	<g>
		<path d="M196.923,211.692c-24.431,0-44.308,19.876-44.308,44.308s19.876,44.308,44.308,44.308s44.308-19.876,44.308-44.308    S221.354,211.692,196.923,211.692z" fill="#ff8237" data-original="#000000" style="" class=""/>
	</g>
</g>
<g xmlns="http://www.w3.org/2000/svg">
	<g>
		<path d="M497.231,103.385H349.538c-6.777,0-12.685,4.613-14.328,11.187l-11.973,47.89h-13.084v-44.308    c0-8.157-6.613-14.769-14.769-14.769h-98.462c-65.09,0-120.784,40.965-142.68,98.463c-0.03,0-0.06-0.001-0.09-0.001    C24.293,201.846,0,226.14,0,256s24.293,54.154,54.154,54.154c0.03,0,0.06-0.001,0.09-0.001    c21.896,57.498,77.59,98.463,142.68,98.463c34.889,0,67.729-11.463,94.971-33.148c23.906-19.031,41.68-45.044,50.737-74.002    l157.451-30.974C507.007,269.129,512,263.058,512,256V118.154C512,109.997,505.387,103.385,497.231,103.385z M46.075,279.247    c-9.616-3.351-16.537-12.503-16.537-23.247s6.921-19.896,16.537-23.247c-1.163,7.582-1.767,15.345-1.767,23.247    S44.912,271.665,46.075,279.247z M196.923,329.846c-40.719,0-73.846-33.127-73.846-73.846s33.127-73.846,73.846-73.846    c40.719,0,73.846,33.127,73.846,73.846S237.642,329.846,196.923,329.846z" fill="#ff8237" data-original="#000000" style="" class=""/>
	</g>
</g>
<g xmlns="http://www.w3.org/2000/svg">
</g>
<g xmlns="http://www.w3.org/2000/svg">
</g>
<g xmlns="http://www.w3.org/2000/svg">
</g>
<g xmlns="http://www.w3.org/2000/svg">
</g>
<g xmlns="http://www.w3.org/2000/svg">
</g>
<g xmlns="http://www.w3.org/2000/svg">
</g>
<g xmlns="http://www.w3.org/2000/svg">
</g>
<g xmlns="http://www.w3.org/2000/svg">
</g>
<g xmlns="http://www.w3.org/2000/svg">
</g>
<g xmlns="http://www.w3.org/2000/svg">
</g>
<g xmlns="http://www.w3.org/2000/svg">
</g>
<g xmlns="http://www.w3.org/2000/svg">
</g>
<g xmlns="http://www.w3.org/2000/svg">
</g>
<g xmlns="http://www.w3.org/2000/svg">
</g>
<g xmlns="http://www.w3.org/2000/svg">
</g>
</g></svg>
